<svg width="370" height="101" viewBox="0 0 370 101" fill="none" xmlns="http://www.w3.org/2000/svg">
<path d="M111.854 30.1205H120.667V21.9551H111.854V30.1205ZM104.203 78.9854H108.418C115.597 78.9854 120.667 73.9078 120.667 66.7629V34.4839H111.854V66.0995C111.854 69.2381 110.168 70.8713 107.038 70.8713H104.19V78.9854H104.203ZM155.627 34.4839L154.721 37.5715C151.757 34.9685 147.937 33.5469 143.991 33.5781C134.219 33.5781 126.926 40.9653 126.926 50.8403C126.926 60.7026 134.207 68.1536 143.991 68.1536C148.142 68.1536 151.757 66.6991 154.542 64.2112L155.321 67.1839H162.193V34.4839H155.627ZM144.707 59.7967C143.527 59.8217 142.355 59.6063 141.261 59.1636C140.167 58.721 139.176 58.0605 138.346 57.2224C137.516 56.3842 136.867 55.3861 136.436 54.2889C136.005 53.1916 135.803 52.0182 135.842 50.8403C135.798 49.6604 135.996 48.484 136.425 47.3836C136.853 46.2831 137.502 45.2819 138.333 44.4417C139.164 43.6014 140.157 42.9399 141.254 42.4978C142.35 42.0557 143.525 41.8424 144.707 41.8711C145.888 41.8424 147.064 42.0557 148.159 42.4978C149.255 42.9399 150.25 43.6014 151.08 44.4417C151.91 45.2819 152.56 46.2831 152.988 47.3836C153.416 48.484 153.615 49.6604 153.571 50.8403C153.613 52.0192 153.413 53.1942 152.984 54.2931C152.555 55.3921 151.905 56.3917 151.075 57.2305C150.245 58.0694 149.252 58.7298 148.156 59.1712C147.061 59.6124 145.887 59.8254 144.707 59.7967ZM192.069 34.4839L184.227 56.403L176.269 34.4839H166.855L180.126 67.1839H188.263L201.164 34.4839H192.057H192.069ZM231.283 34.4839L230.376 37.5715C227.412 34.9685 223.593 33.5469 219.647 33.5781C209.875 33.5781 202.582 40.9653 202.582 50.8403C202.582 60.7026 209.875 68.1536 219.647 68.1536C223.798 68.1536 227.425 66.6991 230.197 64.2112L230.977 67.1839H237.849V34.4839H231.283ZM220.362 59.7967C219.182 59.8217 218.01 59.6063 216.917 59.1636C215.823 58.721 214.831 58.0605 214.001 57.2224C213.172 56.3842 212.522 55.3861 212.091 54.2889C211.661 53.1916 211.459 52.0182 211.498 50.8403C211.454 49.6604 211.652 48.484 212.08 47.3836C212.509 46.2831 213.158 45.2819 213.988 44.4417C214.819 43.6014 215.813 42.9399 216.909 42.4978C218.005 42.0557 219.18 41.8424 220.362 41.8711C221.544 41.8424 222.719 42.0557 223.815 42.4978C224.911 42.9399 225.905 43.6014 226.736 44.4417C227.566 45.2819 228.215 46.2831 228.644 47.3836C229.072 48.484 229.27 49.6604 229.226 50.8403C229.269 52.0192 229.069 53.1942 228.639 54.2931C228.21 55.3921 227.561 56.3917 226.731 57.2305C225.9 58.0694 224.907 58.7298 223.811 59.1712C222.717 59.6124 221.542 59.8254 220.362 59.7967ZM246.381 30.1205H255.118V21.9551H246.381V30.1205ZM246.381 67.1839H255.181V34.4839H246.368V67.1967L246.381 67.1839ZM275.146 68.1536C283.411 68.1536 288.826 63.7902 288.826 57.1302C288.826 49.1435 282.018 48.0462 276.717 47.0766C273.332 46.4769 270.56 45.9283 270.56 43.7593C270.56 41.8711 272.196 40.659 274.903 40.659C277.969 40.659 279.783 41.9349 279.847 44.5376H288.226C288.162 37.9925 282.989 33.5781 275.146 33.5781C267.304 33.5781 262.067 37.8777 262.067 44.0528C262.067 51.7462 268.695 53.1369 273.881 54.0427C277.318 54.5913 280.14 55.2547 280.14 57.4875C280.14 59.6819 277.918 60.8302 275.504 60.8302C272.374 60.8302 270.139 59.3758 270.075 56.4668H261.517C261.517 63.4329 267.01 68.1536 275.146 68.1536ZM310.923 59.3119C307.667 59.3119 305.865 57.5002 305.865 54.3361V41.6287H314.73V34.4839H305.738V26.0123H304.051L291.215 39.6894V41.6287H297.064V55.561C297.064 62.7695 301.459 67.1839 308.638 67.1839H314.896V59.3119H310.937H310.923ZM320.912 30.1205H329.662V21.9551H320.912V30.1205ZM320.912 67.1839H329.726V34.4839H320.912V67.1967V67.1839ZM353.305 68.1536C361.799 68.1536 368.492 62.5781 370 54.3489H361.135C359.627 57.8575 356.856 59.7967 353.305 59.7967C348.592 59.7967 344.926 55.8672 344.926 50.8403C344.926 45.7369 348.541 41.8711 353.305 41.8711C354.976 41.849 356.616 42.3285 358.012 43.2473C359.409 44.1663 360.496 45.4824 361.135 47.0255H369.885C368.313 38.9622 361.799 33.5781 353.356 33.5781C343.47 33.5781 335.984 40.9653 335.984 50.7765C335.984 60.5878 343.47 68.1536 353.305 68.1536Z" fill="black"/>
<path d="M50.2948 1.39327L84.9731 21.3934C86.5536 22.3061 87.8658 23.6176 88.7787 25.1963C89.691 26.7752 90.1725 28.5658 90.1746 30.389V70.3892C90.1746 74.1003 88.2017 77.5426 84.9731 79.3974L50.2948 99.3978C48.7115 100.311 46.9154 100.791 45.0872 100.791C43.2589 100.791 41.4629 100.311 39.8796 99.3978L5.20102 79.3974C3.61904 78.4839 2.30563 77.1702 1.39271 75.5891C0.479763 74.0079 -0.000595597 72.2149 -0.00012172 70.3892V30.389C-0.00012172 26.6782 1.98556 23.2488 5.20102 21.3934L39.8796 1.39327C41.4629 0.480202 43.2589 -0.000488281 45.0872 -0.000488281C46.9154 -0.000488281 48.7115 0.480202 50.2948 1.39327ZM66.5002 31.5535L49.5389 21.7901C47.9586 20.8818 46.1674 20.4037 44.3442 20.4037C42.5209 20.4037 40.7297 20.8818 39.1494 21.7901L22.1881 31.5535C20.6037 32.4656 19.2877 33.7784 18.3724 35.3597C17.4572 36.9411 16.9749 38.7353 16.9741 40.5618V60.0502C16.9741 63.761 18.9597 67.2159 22.1881 69.0585L39.1494 78.8222C40.7297 79.7302 42.5209 80.2081 44.3442 80.2081C46.1674 80.2081 47.9586 79.7302 49.5389 78.8222L66.5002 69.0585C68.0849 68.1463 69.4007 66.8336 70.3157 65.2522C71.2314 63.6709 71.7136 61.8767 71.7143 60.0502V40.5618C71.7143 36.851 69.7156 33.3961 66.5002 31.5535Z" fill="#3884FF"/>
<path d="M45.4319 63.5554C52.779 63.5554 58.7351 57.618 58.7351 50.2938C58.7351 42.9697 52.779 37.0322 45.4319 37.0322C38.0847 37.0322 32.1287 42.9697 32.1287 50.2938C32.1287 57.618 38.0847 63.5554 45.4319 63.5554Z" fill="black"/>
</svg>