<svg width="1480" height="330" viewBox="0 0 1480 330" fill="none" xmlns="http://www.w3.org/2000/svg"><g filter="url(#a)"><path d="M1445 16H35c-8.284 0-15 6.716-15 15v259.093c0 8.285 6.716 15 15 15h1410c8.28 0 15-6.715 15-15V31c0-8.284-6.72-15-15-15Z" fill="#fff"/></g><path d="M666.854 140.121h8.813v-8.165h-8.813v8.165Zm-7.651 48.865h4.215c7.179 0 12.249-5.078 12.249-12.223v-32.279h-8.813V176.1c0 3.139-1.686 4.772-4.815 4.772h-2.849v8.114h.013Zm51.425-44.502-.907 3.088a16.063 16.063 0 0 0-10.73-3.993c-9.771 0-17.065 7.387-17.065 17.262 0 9.862 7.281 17.313 17.065 17.313 4.152 0 7.766-1.454 10.551-3.942l.779 2.972h6.872v-32.7h-6.565Zm-10.921 25.313a8.689 8.689 0 0 1-8.271-5.508 8.68 8.68 0 0 1-.594-3.448 8.648 8.648 0 0 1 5.412-8.343 8.664 8.664 0 0 1 3.453-.626 8.659 8.659 0 0 1 8.864 8.969 8.633 8.633 0 0 1-2.496 6.39 8.661 8.661 0 0 1-6.368 2.566Zm47.363-25.313-7.843 21.919-7.958-21.919h-9.414l13.271 32.7h8.137l12.901-32.7h-9.107.013Zm39.213 0-.907 3.088a16.062 16.062 0 0 0-10.729-3.993c-9.771 0-17.065 7.387-17.065 17.262 0 9.862 7.294 17.313 17.065 17.313 4.151 0 7.779-1.454 10.55-3.942l.78 2.972h6.872v-32.7h-6.566Zm-10.921 25.313a8.68 8.68 0 0 1-6.36-2.574 8.663 8.663 0 0 1-2.504-6.382 8.647 8.647 0 0 1 8.864-8.969 8.664 8.664 0 0 1 8.282 5.512c.428 1.1.626 2.277.582 3.457a8.63 8.63 0 0 1-2.495 6.39 8.666 8.666 0 0 1-6.369 2.566Zm26.019-29.676h8.737v-8.165h-8.737v8.165Zm0 37.063h8.801v-32.7h-8.814v32.713l.013-.013Zm28.766.97c8.264 0 13.679-4.363 13.679-11.023 0-7.987-6.808-9.084-12.109-10.054-3.384-.6-6.157-1.148-6.157-3.317 0-1.888 1.636-3.1 4.343-3.1 3.066 0 4.88 1.275 4.944 3.878h8.379c-.064-6.545-5.237-10.959-13.079-10.959-7.843 0-13.08 4.299-13.08 10.474 0 7.694 6.628 9.084 11.815 9.99 3.436.549 6.258 1.212 6.258 3.445 0 2.194-2.222 3.343-4.636 3.343-3.13 0-5.365-1.455-5.429-4.364h-8.558c0 6.966 5.493 11.687 13.63 11.687Zm35.777-8.842c-3.257 0-5.058-1.811-5.058-4.975v-12.708h8.865v-7.145h-8.993v-8.471h-1.686l-12.837 13.677v1.939h5.85v13.932c0 7.209 4.394 11.623 11.573 11.623h6.258v-7.872h-3.972Zm9.989-29.191h8.749v-8.165h-8.749v8.165Zm0 37.063h8.813v-32.7h-8.813v32.713-.013Zm32.392.97c8.494 0 15.188-5.575 16.695-13.805h-8.865c-1.507 3.509-4.279 5.448-7.83 5.448-4.713 0-8.379-3.929-8.379-8.956 0-5.104 3.615-8.969 8.379-8.969a8.359 8.359 0 0 1 7.83 5.154h8.75c-1.571-8.063-8.086-13.447-16.529-13.447-9.886 0-17.371 7.387-17.371 17.198s7.485 17.377 17.32 17.377Z" fill="#000"/><path d="m605.295 111.394 34.678 20a10.407 10.407 0 0 1 5.202 8.995v40.001c0 3.711-1.973 7.153-5.202 9.008l-34.678 20a10.424 10.424 0 0 1-10.415 0l-34.679-20A10.402 10.402 0 0 1 555 180.39v-40.001c0-3.71 1.986-7.14 5.201-8.995l34.679-20a10.423 10.423 0 0 1 10.415 0Zm16.205 30.16-16.961-9.763a10.419 10.419 0 0 0-10.39 0l-16.961 9.763a10.409 10.409 0 0 0-5.214 9.008v19.489c0 3.71 1.986 7.165 5.214 9.008l16.961 9.764a10.43 10.43 0 0 0 10.39 0l16.961-9.764a10.404 10.404 0 0 0 5.214-9.008v-19.489c0-3.711-1.998-7.165-5.214-9.008Z" fill="#3884FF"/><path d="M600.432 173.556c7.347 0 13.303-5.937 13.303-13.262 0-7.324-5.956-13.261-13.303-13.261s-13.303 5.937-13.303 13.261c0 7.325 5.956 13.262 13.303 13.262Z" fill="#000"/><defs><filter id="a" x="0" y="0" width="1480" height="329.093" filterUnits="userSpaceOnUse" color-interpolation-filters="sRGB"><feFlood flood-opacity="0" result="BackgroundImageFix"/><feColorMatrix in="SourceAlpha" values="0 0 0 0 0 0 0 0 0 0 0 0 0 0 0 0 0 0 127 0" result="hardAlpha"/><feOffset dy="4"/><feGaussianBlur stdDeviation="10"/><feComposite in2="hardAlpha" operator="out"/><feColorMatrix values="0 0 0 0 0 0 0 0 0 0 0 0 0 0 0 0 0 0 0.12 0"/><feBlend in2="BackgroundImageFix" result="effect1_dropShadow"/><feBlend in="SourceGraphic" in2="effect1_dropShadow" result="shape"/></filter></defs></svg>
